<svg width="109" height="21" viewBox="0 0 109 21" fill="none" xmlns="http://www.w3.org/2000/svg">
<g clip-path="url(#clip0_74_98)">
<path d="M5.09687 19.25L6.51875 13.1031L1.75 8.96875L8.05 8.42188L10.5 2.625L12.95 8.42188L19.25 8.96875L14.4812 13.1031L15.9031 19.25L10.5 15.9906L5.09687 19.25Z" fill="#D6AF36"/>
<path d="M27.0969 19.25L28.5188 13.1031L23.75 8.96875L30.05 8.42188L32.5 2.625L34.95 8.42188L41.25 8.96875L36.4812 13.1031L37.9031 19.25L32.5 15.9906L27.0969 19.25Z" fill="#D6AF36"/>
<path d="M49.0969 19.25L50.5188 13.1031L45.75 8.96875L52.05 8.42188L54.5 2.625L56.95 8.42188L63.25 8.96875L58.4812 13.1031L59.9031 19.25L54.5 15.9906L49.0969 19.25Z" fill="#D6AF36"/>
<path d="M71.0969 19.25L72.5188 13.1031L67.75 8.96875L74.05 8.42188L76.5 2.625L78.95 8.42188L85.25 8.96875L80.4812 13.1031L81.9031 19.25L76.5 15.9906L71.0969 19.25Z" fill="#D6AF36"/>
<path d="M93.0969 19.25L94.5188 13.1031L89.75 8.96875L96.05 8.42188L98.5 2.625L100.95 8.42188L107.25 8.96875L102.481 13.1031L103.903 19.25L98.5 15.9906L93.0969 19.25Z" fill="#D6AF36"/>
</g>
<defs>
<clipPath id="clip0_74_98">
<rect width="109" height="21" fill="white"/>
</clipPath>
</defs>
</svg>
